<svg width="50" height="50" viewBox="0 0 50 50" fill="none" xmlns="http://www.w3.org/2000/svg">
<path d="M12.2668 47.1152H16.6013C19.1141 47.1152 19.1178 43.2002 16.6013 43.2002H12.2668C9.75408 43.2002 9.75037 47.1152 12.2668 47.1152ZM12.2668 44.6651H16.6013C17.2381 44.6651 17.2381 45.6503 16.6013 45.6503H12.2668C11.6301 45.6503 11.6301 44.6651 12.2668 44.6651Z" fill="#F54991"/>
<path d="M17.6453 25.1755L12.8737 29.9471L11.2213 28.2945C10.5514 27.6252 9.51574 28.6606 10.1854 29.3304L12.3559 31.5009C12.7012 31.7868 13.0465 31.7868 13.3917 31.5009L18.6812 26.2114C19.3508 25.5416 18.3151 24.5061 17.6453 25.1755V25.1755Z" fill="#F54991"/>
<path d="M49.4567 32.4029C49.161 31.8384 48.9467 31.22 48.8012 30.5994C48.0869 27.6116 47.0017 24.717 45.5762 21.9958L43.1926 17.4463C41.8434 14.8706 37.8613 15.2989 37.1095 18.1239C35.3264 17.4823 33.3134 18.5368 32.8258 20.3681C31.3517 19.8376 29.6494 20.4624 28.8678 21.8182V5.73483V2.8617C28.8677 1.28383 27.584 0 26.0059 0H8.94293C7.99593 0 7.99593 1.46489 8.94293 1.46489H26.0059C26.7761 1.46489 27.4028 2.09147 27.4028 2.8617V5.00239H1.46489V2.8617C1.46489 2.09147 2.09147 1.46489 2.8617 1.46489H4.84135C5.78835 1.46489 5.78835 0 4.84135 0H2.8617C1.28383 0 0 1.28383 0 2.8617V5.73483V41.0371V47.1397C0 48.7176 1.28383 50.0014 2.8617 50.0014H26.0059C27.5839 50.0014 28.8677 48.7176 28.8677 47.1397V41.0371V38.1033L31.4851 39.3979C32.1319 39.7178 32.6634 40.2505 32.982 40.8979C34.1447 43.2608 37.1249 44.2404 39.4658 43.0139L43.8297 40.7277C44.6686 40.2883 43.9887 38.9908 43.1499 39.4301L38.786 41.7163C37.165 42.566 35.1044 41.8931 34.2964 40.2511C33.8363 39.3162 33.0686 38.5469 32.1345 38.0848L21.0275 32.5909C18.9414 31.5777 20.45 28.305 22.5686 29.2931L26.6015 31.4161C27.2237 31.7437 27.9178 31.0511 27.5915 30.4282L20.5855 17.0556C19.4351 14.8928 22.516 12.8965 23.6911 15.1399L28.6432 24.5921L29.9367 27.0611C30.3637 27.8765 31.6726 27.2181 31.2343 26.3813L29.975 23.9776C29.465 22.2783 31.563 20.9081 32.9133 22.0928L34.3146 24.7675C34.7416 25.5829 36.0505 24.9244 35.6122 24.0877L34.1874 21.3681C34.0541 19.8056 35.9674 18.8001 37.1769 19.8307L38.5873 22.523C39.0143 23.3384 40.3232 22.6799 39.8849 21.8432L38.4742 19.1505C38.2823 17.233 40.9811 16.3817 41.8948 18.126L44.2784 22.6755C45.6478 25.2894 46.6901 28.0699 47.3763 30.9396C47.5429 31.6841 47.8049 32.4066 48.159 33.0825C49.0029 34.6933 48.3789 36.6903 46.7682 37.5343C45.9294 37.9739 46.6093 39.2714 47.448 38.8319C49.7744 37.6132 50.6755 34.7291 49.4567 32.4029V32.4029ZM27.4028 47.1397C27.4028 47.9099 26.7761 48.5365 26.0059 48.5365H2.8617C2.09147 48.5365 1.46489 47.9099 1.46489 47.1397V41.7695H27.4028V47.1397ZM18.8328 29.5317C18.3356 30.5768 18.4322 31.8286 19.08 32.7872C17.8688 34.0547 16.207 34.773 14.4338 34.773C10.8857 34.773 7.99905 31.8864 7.99905 28.3382C7.99905 24.7901 10.8857 21.9035 14.4338 21.9035C17.8004 21.9035 20.5696 24.5027 20.8442 27.7996C19.9767 28.0643 19.2227 28.7117 18.8328 29.5317V29.5317ZM24.1509 13.4344C23.8315 13.1751 23.4631 12.9757 23.0586 12.8493C20.7124 12.1162 18.3495 14.2676 18.866 16.6702H4.96088C4.82621 16.6702 4.71674 16.5607 4.71674 16.4261V11.1917C4.71674 11.0571 4.82621 10.9476 4.96088 10.9476H23.9067C24.0414 10.9476 24.1509 11.0571 24.1509 11.1917V13.4344ZM27.4028 19.0681L25.6158 15.6572V11.1917C25.6158 10.2494 24.849 9.48269 23.9067 9.48269H4.96088C4.01857 9.48269 3.25185 10.2494 3.25185 11.1917V16.4261C3.25185 17.3685 4.01857 18.1352 4.96088 18.1352H19.4972L25.2022 29.0243L23.2367 27.9896C23.228 27.985 23.2191 27.9805 23.2102 27.9763C22.9192 27.8378 22.6148 27.7444 22.3051 27.6958C21.9768 23.6395 18.5732 20.4386 14.4339 20.4386C10.078 20.4386 6.53427 23.9823 6.53427 28.3382C6.53427 32.6941 10.078 36.2378 14.4339 36.2378C16.6185 36.2378 18.667 35.352 20.1552 33.7856C22.4789 35.1247 24.9986 36.1895 27.4028 37.3787V40.3046H1.46489V6.46727H27.4028V19.0681Z" fill="#F54991"/>
</svg>
