<svg width="50" height="50" viewBox="0 0 50 50" fill="none" xmlns="http://www.w3.org/2000/svg">
<path d="M42.117 39.2904C41.11 36.2934 37.0965 34.4174 34.235 33.1599C33.114 32.6689 30.0105 31.8359 29.6375 30.4244C29.504 29.9159 29.522 29.4364 29.6315 28.9769C29.4574 29.0111 29.2804 29.0287 29.103 29.0294H27.2385C26.5231 29.0286 25.8372 28.744 25.3314 28.2381C24.8256 27.7322 24.5412 27.0463 24.5405 26.3309C24.5405 24.8444 25.7505 23.6359 27.2385 23.6359H29.103C29.719 23.6359 30.303 23.8444 30.774 24.2164C31.4442 24.128 32.1057 23.9832 32.7515 23.7834C33.567 22.0749 34.203 20.0319 34.3455 18.2734C34.954 10.7494 30.3415 6.3474 23.728 7.1084C18.9195 7.6619 16.047 11.2474 15.7365 15.8634C15.4225 20.5684 17.167 24.0434 19.02 26.5924C19.8315 27.7069 20.684 28.4234 20.553 29.7664C20.401 31.3544 18.703 31.7969 17.4885 32.2849C16.0495 32.8629 14.4995 33.7399 13.7675 34.1454C11.246 35.5379 8.4785 37.2149 7.8565 39.5089C6.479 44.5929 11.131 46.1329 14.9715 46.8439C18.2675 47.4519 21.984 47.4999 25.041 47.4999C30.5705 47.4999 40.5135 47.2784 42.117 43.1219C42.573 41.9424 42.3775 40.0629 42.117 39.2904Z" fill="#2C3145"/>
<path d="M30.283 25.5715C30.1553 25.375 29.9807 25.2134 29.7748 25.1013C29.5689 24.9893 29.3384 24.9304 29.104 24.93H27.2395C27.0519 24.925 26.8652 24.9576 26.6904 25.026C26.5157 25.0943 26.3563 25.1969 26.2219 25.3279C26.0874 25.4588 25.9806 25.6153 25.9076 25.7882C25.8346 25.9611 25.797 26.1468 25.797 26.3345C25.797 26.5222 25.8346 26.7079 25.9076 26.8808C25.9806 27.0537 26.0874 27.2102 26.2219 27.3411C26.3563 27.4721 26.5157 27.5747 26.6904 27.643C26.8652 27.7114 27.0519 27.744 27.2395 27.739H29.104C29.3605 27.7388 29.612 27.6678 29.8307 27.5338C30.0494 27.3997 30.2269 27.2079 30.3435 26.9795C32.943 26.775 35.204 25.981 36.791 24.8085C37.1555 25.0435 37.5865 25.181 38.0515 25.181H38.1685C38.4765 25.1811 38.7816 25.1204 39.0662 25.0025C39.3507 24.8845 39.6093 24.7117 39.827 24.4937C40.0447 24.2758 40.2173 24.0171 40.3349 23.7324C40.4526 23.4476 40.5129 23.1425 40.5125 22.8345V18.1505C40.5126 17.7081 40.3871 17.2748 40.1506 16.9009C39.9141 16.527 39.5763 16.2279 39.1765 16.0385C38.8325 8.517 32.606 2.5 25 2.5C17.394 2.5 11.1665 8.517 10.824 16.0385C10.4239 16.2277 10.0858 16.5266 9.8491 16.9005C9.61238 17.2745 9.48681 17.7079 9.487 18.1505V22.8345C9.48661 23.1424 9.54688 23.4473 9.66438 23.7319C9.78189 24.0165 9.95431 24.2751 10.1718 24.493C10.3893 24.7109 10.6476 24.8838 10.9319 25.0019C11.2163 25.1199 11.5211 25.1808 11.829 25.181H11.9475C12.2555 25.1809 12.5604 25.1202 12.8449 25.0022C13.1294 24.8842 13.3879 24.7113 13.6055 24.4934C13.8232 24.2755 13.9957 24.0168 14.1133 23.7322C14.231 23.4475 14.2913 23.1425 14.291 22.8345V18.1505C14.2908 17.7143 14.1685 17.2868 13.9381 16.9164C13.7077 16.546 13.3782 16.2475 12.987 16.0545C13.3215 9.717 18.5805 4.6655 25 4.6655C31.417 4.6655 36.6785 9.717 37.0115 16.0545C36.6207 16.2478 36.2916 16.5465 36.0615 16.9168C35.8314 17.2872 35.7093 17.7145 35.709 18.1505V22.8345C35.709 23.1455 35.7695 23.435 35.876 23.7055C34.51 24.683 32.5215 25.3795 30.283 25.5715Z" fill="#2C3145"/>
</svg>
