<svg width="50" height="50" viewBox="0 0 50 50" fill="none" xmlns="http://www.w3.org/2000/svg">
<path d="M32.8125 1.5625H14.0625C11.9905 1.5625 10.0034 2.3856 8.53823 3.85073C7.0731 5.31586 6.25 7.303 6.25 9.375V35.9375C6.25 38.0095 7.0731 39.9966 8.53823 41.4618C10.0034 42.9269 11.9905 43.75 14.0625 43.75H31.25V38.8891C29.2471 36.8509 28.1249 34.1076 28.125 31.25C28.125 25.2188 33.0328 20.3125 39.0625 20.3125C39.5938 20.3125 40.1125 20.3641 40.625 20.4375V9.375C40.625 8.34905 40.4229 7.33314 40.0303 6.38529C39.6377 5.43743 39.0622 4.57619 38.3368 3.85073C37.6113 3.12527 36.7501 2.54981 35.8022 2.15719C34.8544 1.76458 33.8385 1.5625 32.8125 1.5625ZM22.1562 35.9375H14.0625C13.6481 35.9375 13.2507 35.7729 12.9576 35.4799C12.6646 35.1868 12.5 34.7894 12.5 34.375C12.5 33.9606 12.6646 33.5632 12.9576 33.2701C13.2507 32.9771 13.6481 32.8125 14.0625 32.8125H22.1562C22.5707 32.8125 22.9681 32.9771 23.2611 33.2701C23.5541 33.5632 23.7188 33.9606 23.7188 34.375C23.7188 34.7894 23.5541 35.1868 23.2611 35.4799C22.9681 35.7729 22.5707 35.9375 22.1562 35.9375ZM22.5312 28.125H14.0625C13.6481 28.125 13.2507 27.9604 12.9576 27.6674C12.6646 27.3743 12.5 26.9769 12.5 26.5625C12.5 26.1481 12.6646 25.7507 12.9576 25.4576C13.2507 25.1646 13.6481 25 14.0625 25H22.5312C22.9457 25 23.3431 25.1646 23.6361 25.4576C23.9291 25.7507 24.0938 26.1481 24.0938 26.5625C24.0938 26.9769 23.9291 27.3743 23.6361 27.6674C23.3431 27.9604 22.9457 28.125 22.5312 28.125ZM27.2656 20.3125H14.0625C13.6481 20.3125 13.2507 20.1479 12.9576 19.8549C12.6646 19.5618 12.5 19.1644 12.5 18.75C12.5 18.3356 12.6646 17.9382 12.9576 17.6451C13.2507 17.3521 13.6481 17.1875 14.0625 17.1875H27.2656C27.68 17.1875 28.0775 17.3521 28.3705 17.6451C28.6635 17.9382 28.8281 18.3356 28.8281 18.75C28.8281 19.1644 28.6635 19.5618 28.3705 19.8549C28.0775 20.1479 27.68 20.3125 27.2656 20.3125ZM32.8125 12.5H14.0625C13.6481 12.5 13.2507 12.3354 12.9576 12.0424C12.6646 11.7493 12.5 11.3519 12.5 10.9375C12.5 10.5231 12.6646 10.1257 12.9576 9.83265C13.2507 9.53962 13.6481 9.375 14.0625 9.375H32.8125C33.2269 9.375 33.6243 9.53962 33.9174 9.83265C34.2104 10.1257 34.375 10.5231 34.375 10.9375C34.375 11.3519 34.2104 11.7493 33.9174 12.0424C33.6243 12.3354 33.2269 12.5 32.8125 12.5ZM39.0625 42.1875C37.3828 42.1875 35.7969 41.7969 34.375 41.1203V46.8719C34.375 47.1548 34.4517 47.4323 34.5971 47.675C34.7424 47.9177 34.9509 48.1163 35.2004 48.2498C35.4498 48.3833 35.7308 48.4465 36.0133 48.4328C36.2959 48.419 36.5694 48.3289 36.8047 48.1719L39.0625 46.6656L41.3203 48.1719C41.5556 48.3289 41.8291 48.419 42.1117 48.4328C42.3942 48.4465 42.6752 48.3833 42.9246 48.2498C43.1741 48.1163 43.3826 47.9177 43.5279 47.675C43.6733 47.4323 43.75 47.1548 43.75 46.8719V41.1203C42.2866 41.8212 40.685 42.1858 39.0625 42.1875Z" fill="#2C3145"/>
<path d="M39.0625 39.0625C43.3772 39.0625 46.875 35.5647 46.875 31.25C46.875 26.9353 43.3772 23.4375 39.0625 23.4375C34.7478 23.4375 31.25 26.9353 31.25 31.25C31.25 35.5647 34.7478 39.0625 39.0625 39.0625Z" fill="#2C3145"/>
</svg>
