<svg width="50" height="50" viewBox="0 0 50 50" fill="none" xmlns="http://www.w3.org/2000/svg">
<path fill-rule="evenodd" clip-rule="evenodd" d="M27.9613 2.84553L30.9384 5.07405C31.7527 5.68352 32.6097 5.99543 33.6252 6.05198L37.3382 6.25852C39.5615 6.38215 41.3673 7.89729 41.8751 10.0655L42.7234 13.6863C42.9553 14.6765 43.4114 15.4663 44.153 16.1623L46.8646 18.7073C48.4882 20.2312 48.8975 22.5526 47.893 24.5399L46.2154 27.8587C45.7566 28.7664 45.5982 29.6646 45.7189 30.6744L46.1603 34.367C46.4245 36.5781 45.2459 38.6194 43.199 39.496L39.7805 40.9601C38.8455 41.3605 38.1469 41.9467 37.5903 42.7979L35.5548 45.9102C34.3361 47.7738 32.121 48.5799 29.9896 47.9358L26.4298 46.86C25.4563 46.5658 24.5443 46.5658 23.5706 46.86L20.0109 47.9358C17.8794 48.5799 15.6644 47.7738 14.4456 45.9102L12.4102 42.7979C11.8534 41.9467 11.1548 41.3605 10.2199 40.9601L6.8012 39.4958C4.75432 38.6192 3.57571 36.5779 3.83997 34.3668L4.28137 30.6742C4.40208 29.6644 4.24368 28.7662 3.78489 27.8585L2.10725 24.5397C1.10276 22.5525 1.51204 20.2311 3.13567 18.7072L5.84729 16.1621C6.58889 15.4661 7.04485 14.6763 7.27678 13.6861L8.12502 10.0653C8.63284 7.89719 10.4386 6.38206 12.6619 6.25833L16.3749 6.05178C17.3905 5.99534 18.2475 5.68333 19.0617 5.07385L22.0389 2.84534C23.8214 1.51116 26.1786 1.51116 27.9613 2.84553ZM23.1009 26.2751L19.87 23.0443C19.0326 22.2069 17.6743 22.2069 16.837 23.0443C15.9996 23.8817 15.9996 25.2399 16.837 26.0773L21.5891 30.8292C22.4265 31.6665 23.7848 31.6666 24.6221 30.8292C27.4864 27.9649 30.3182 25.0684 33.1693 22.1909C34.0006 21.3519 33.998 19.998 33.16 19.1647C32.3219 18.3312 30.9641 18.3335 30.1319 19.174L23.1009 26.2751ZM25 9.02844C20.5898 9.02844 16.5969 10.8161 13.7067 13.7064C10.8164 16.5967 9.02874 20.5895 9.02874 24.9997C9.02874 29.41 10.8164 33.4029 13.7067 36.2931C16.5969 39.1833 20.5898 40.971 25 40.971C29.4103 40.971 33.4032 39.1833 36.2934 36.2931C39.1836 33.4029 40.9713 29.41 40.9713 24.9997C40.9713 20.5895 39.1836 16.5966 36.2934 13.7064C33.4032 10.8161 29.4103 9.02844 25 9.02844ZM35.1886 14.8112C32.5812 12.2037 28.9789 10.5909 25 10.5909C21.0211 10.5909 17.4189 12.2037 14.8115 14.8112C12.204 17.4186 10.5912 21.0208 10.5912 24.9997C10.5912 28.9786 12.204 32.5809 14.8115 35.1883C17.4189 37.7957 21.0211 39.4085 25 39.4085C28.9789 39.4085 32.5812 37.7957 35.1886 35.1884C37.796 32.581 39.4087 28.9787 39.4087 24.9998C39.4088 21.0208 37.796 17.4186 35.1886 14.8112Z" fill="#2C3145"/>
</svg>
