<svg width="50" height="41" viewBox="0 0 50 41" fill="none" xmlns="http://www.w3.org/2000/svg">
<path d="M39.6575 31.5394H41.9746C42.6364 31.5394 43.1749 31.0009 43.1749 30.3391V27.9786H45.5354C46.1972 27.9786 46.7356 27.4401 46.7356 26.7783V24.4612C46.7356 23.7994 46.1972 23.2609 45.5354 23.2609H43.1749V20.9005C43.1749 20.2387 42.6364 19.7002 41.9746 19.7002H39.6575C38.9957 19.7002 38.4572 20.2387 38.4572 20.9005V23.2609H36.0968C35.435 23.2609 34.8965 23.7994 34.8965 24.4612V26.7783C34.8965 27.4401 35.435 27.9786 36.0968 27.9786H38.4572V30.3391C38.4572 31.0009 38.9956 31.5394 39.6575 31.5394ZM36.3613 26.5138V24.7258H39.0024C39.5095 24.7258 39.9221 24.3132 39.9221 23.8062V21.165H41.7101V23.8062C41.7101 24.3132 42.1226 24.7258 42.6297 24.7258H45.2708V26.5138H42.6297C42.1227 26.5138 41.7101 26.9264 41.7101 27.4334V30.0745H39.9221V27.4334C39.9221 26.9264 39.5096 26.5138 39.0024 26.5138H36.3613Z" fill="#F54991"/>
<path d="M47.8467 7.61387C49.0341 7.61387 50 6.64785 50 5.46055V2.15332C50 0.966016 49.034 0 47.8467 0H26.1249C24.9376 0 23.9716 0.966016 23.9716 2.15332V5.46055C23.9716 6.64785 24.9376 7.61387 26.1249 7.61387H27.2353V10.7164C27.2353 10.7297 27.2211 10.7431 27.2021 10.7482C25.2999 11.2689 23.9715 13.0111 23.9715 14.9851V15.859C22.2653 14.3449 19.6446 14.404 18.0107 16.0378L17.1429 16.9057C16.8568 17.1918 16.8568 17.6555 17.1429 17.9415C17.4289 18.2274 17.8927 18.2274 18.1786 17.9415L19.0465 17.0736C20.1714 15.9486 22.0017 15.9486 23.1266 17.0736C23.671 17.618 23.971 18.3417 23.9715 19.1117V19.1156C23.971 19.8854 23.671 20.6092 23.1266 21.1536L18.6696 25.6104L14.5896 21.5305L15.7625 20.3576C16.0485 20.0715 16.0485 19.6078 15.7625 19.3218C15.4765 19.0358 15.0127 19.0358 14.7268 19.3218L8.06123 25.9873C7.23965 26.8089 6.78721 27.9013 6.78721 29.0631C6.78721 30.1374 7.17471 31.1519 7.88242 31.9481H4.3498C1.95127 31.9479 0 33.8993 0 36.2979C0 38.6964 1.95127 40.6477 4.3498 40.6477H5.50029C5.90479 40.6477 6.23272 40.3198 6.23272 39.9152C6.23272 39.5106 5.90479 39.1828 5.50029 39.1828H4.3498C2.75898 39.1828 1.46484 37.8886 1.46484 36.2979C1.46484 34.707 2.75908 33.4128 4.3498 33.4128H10.6527V39.1828H8.91826C8.51377 39.1828 8.18584 39.5106 8.18584 39.9152C8.18584 40.3198 8.51377 40.6477 8.91826 40.6477H18.4206C20.8191 40.6477 22.7704 38.6964 22.7704 36.2979C22.7704 33.8992 20.8191 31.9479 18.4206 31.9479H14.4036L23.9715 22.3802V36.2556C23.9715 38.677 25.9416 40.6472 28.3632 40.6472H45.6084C48.03 40.6472 50 38.677 50 36.2556V23.0543C50 22.6497 49.6721 22.3219 49.2676 22.3219C48.8631 22.3219 48.5352 22.6497 48.5352 23.0543V33.3286H36.4213C34.5891 33.3286 33.0984 31.838 33.0984 30.0059V21.2346C33.0984 19.4023 34.5891 17.9118 36.4213 17.9118H48.5352V19.6364C48.5352 20.041 48.8631 20.3688 49.2676 20.3688C49.6721 20.3688 50 20.041 50 19.6364V14.9851C50 13.0111 48.6716 11.2689 46.7698 10.7483C46.7504 10.743 46.7363 10.7296 46.7363 10.7164V7.61387H47.8467ZM9.09697 31.1029C8.55205 30.5581 8.25205 29.8336 8.25205 29.0629C8.25205 28.2923 8.55215 27.5678 9.09697 27.0229L13.5538 22.5661L17.6338 26.6461L13.177 31.1029C12.632 31.6479 11.9075 31.9479 11.1369 31.9479C10.3663 31.9479 9.64189 31.6479 9.09697 31.1029ZM21.3056 36.2979C21.3056 37.8886 20.0113 39.1828 18.4206 39.1828H12.1177V33.4128H18.4206C20.0114 33.4128 21.3056 34.707 21.3056 36.2979V36.2979ZM48.5352 2.15332V5.46055C48.5352 5.84023 48.2263 6.14902 47.8467 6.14902H45.9555V1.46484H47.8467C48.2263 1.46484 48.5352 1.77363 48.5352 2.15332ZM41.8368 6.14902V1.46484H44.4905V6.14902H41.8368ZM37.7182 6.14902V1.46484H40.372V6.14902H37.7182ZM33.5996 6.14902V1.46484H36.2533V6.14902H33.5996ZM29.4811 6.14902V1.46484H32.1348V6.14902H29.4811ZM25.4364 5.46055V2.15332C25.4364 1.77363 25.7453 1.46484 26.1249 1.46484H28.0162V6.14902H26.1249C25.7452 6.14902 25.4364 5.84023 25.4364 5.46055ZM46.3828 12.1611C47.6501 12.508 48.5352 13.6691 48.5352 14.985V16.4469H36.4213C33.7813 16.4469 31.6336 18.5946 31.6336 21.2345V30.0058C31.6336 32.6456 33.7813 34.7934 36.4213 34.7934H48.5352V36.2556C48.5352 37.8693 47.2222 39.1823 45.6084 39.1823H28.3631C26.7492 39.1823 25.4362 37.8694 25.4362 36.2556V14.985C25.4362 13.6691 26.3213 12.508 27.589 12.161C28.2431 11.9816 28.6999 11.3875 28.6999 10.7163V7.61377H45.2715V10.7163C45.2715 11.3876 45.7283 11.9816 46.3828 12.1611V12.1611Z" fill="#F54991"/>
</svg>
