<svg width="50" height="65" viewBox="0 0 50 65" fill="none" xmlns="http://www.w3.org/2000/svg">
<path d="M45.0899 44.68L38.3287 42.6013C38.3397 42.3971 38.3247 42.1905 38.2765 41.9864C38.1284 41.3596 37.7133 40.835 37.1374 40.5469L32.956 38.4564V35.475C36.0844 33.2992 38.2862 29.8792 38.8367 25.938H39.3943C41.2224 25.938 42.7906 24.5796 42.9642 22.8452C43.0615 21.8733 42.7435 20.903 42.0919 20.183C41.7766 19.8344 41.3955 19.5586 40.9767 19.3659V8.95866C40.9767 5.12451 37.8574 2.00513 34.0231 2.00513C34.0183 2.00513 33.953 2.00513 33.8645 2.00525C32.1757 0.759552 29.6947 0 26.9425 0C21.0831 0 18.3912 1.22069 15.2745 2.63411C13.6094 3.38916 11.8878 4.16985 9.44744 4.8835C9.1913 4.95841 8.97905 5.13889 8.86411 5.3799C8.74917 5.62079 8.74229 5.89932 8.84523 6.14558C8.87374 6.21387 9.29285 7.18679 10.3741 8.36871C9.9072 8.94341 9.02345 10.4131 9.02345 13.3031V19.4077C7.94409 19.9223 7.15628 20.9418 7.03608 22.1413C6.93865 23.1133 7.25646 24.0837 7.90807 24.804C8.56007 25.5246 9.49121 25.9378 10.4628 25.9378H11.1629C11.713 29.8803 13.9148 33.3007 17.044 35.4762V38.4563L12.8625 40.5468C12.2865 40.835 11.8713 41.3596 11.7233 41.9864C11.6752 42.1904 11.6603 42.397 11.6712 42.6012L4.91001 44.6799C1.97324 45.5829 0 48.2538 0 51.3264V63.098C0 63.6162 0.419986 64.036 0.938028 64.036C1.45607 64.036 1.87606 63.6162 1.87606 63.098V51.3265C1.87606 49.083 3.31687 47.1326 5.46145 46.4733L12.4943 44.311L13.7356 45.9662L12.3253 47.3766C11.4281 48.2738 11.2064 49.639 11.7739 50.7741L14.4591 56.1445H11.9021V55.0774C11.9021 54.5592 11.4821 54.1393 10.964 54.1393C10.446 54.1393 10.026 54.5592 10.026 55.0774V56.1445H5.9511C5.43306 56.1445 5.01307 56.5643 5.01307 57.0825V63.098C5.01307 63.6162 5.43306 64.036 5.9511 64.036H15.977C16.495 64.036 16.915 63.6162 16.915 63.098V61.0561L18.1457 63.5176C18.31 63.8463 18.6412 64.0363 18.9854 64.0363C19.1264 64.0363 19.2695 64.0043 19.4042 63.937C19.8675 63.7052 20.0554 63.1419 19.8237 62.6784L13.4519 49.9348C13.2462 49.5234 13.3266 49.0285 13.6519 48.703L15.6377 46.7172C15.9677 46.3871 16.0049 45.8645 15.7248 45.4911L13.5997 42.6576C13.529 42.5633 13.5379 42.4666 13.5495 42.4174C13.5611 42.368 13.5964 42.2775 13.7018 42.2248L17.3964 40.3775L20.0046 49.3199C20.1497 49.8174 20.6703 50.1026 21.1678 49.9578C21.6652 49.8128 21.9507 49.2921 21.8056 48.7947L21.3945 47.3852C22.5479 47.786 23.7675 47.9946 25.0003 47.9946C26.2336 47.9946 27.4527 47.7866 28.6058 47.3858L25.0002 59.7477L22.9758 52.8071C22.8307 52.3095 22.31 52.024 21.8126 52.1691C21.3152 52.3142 21.0297 52.835 21.1748 53.3322L24.0997 63.3604C24.2165 63.7606 24.5833 64.0358 25.0002 64.0358C25.417 64.0358 25.784 63.7606 25.9007 63.3604L32.6041 40.3775L36.2985 42.2248C36.4041 42.2775 36.4392 42.3681 36.451 42.4172C36.4626 42.4666 36.4715 42.5633 36.4009 42.6576L34.2757 45.4911C33.9956 45.8644 34.0328 46.3871 34.3627 46.7173L36.3486 48.7031C36.674 49.0285 36.7542 49.5235 36.5486 49.9348L30.1765 62.6785C29.9447 63.1419 30.1326 63.7053 30.596 63.9371C30.7307 64.0045 30.8739 64.0364 31.0148 64.0364C31.3589 64.0364 31.6902 63.8463 31.8545 63.5177L38.2263 50.7742C38.7937 49.6393 38.5722 48.274 37.6751 47.3768L36.2645 45.9662L37.5057 44.3112L44.5387 46.4735C46.6831 47.1328 48.1239 49.0831 48.1239 51.3267V63.098C48.1239 63.6162 48.5438 64.036 49.062 64.036C49.5801 64.036 50 63.6162 50 63.098V51.3265C49.9999 48.2539 48.0268 45.5829 45.0899 44.68ZM15.0387 62.16H6.88888V58.0205H10.0258V58.085C10.0258 58.6032 10.4457 59.0231 10.9638 59.0231C11.4818 59.0231 11.9018 58.6032 11.9018 58.085V58.0205H15.0387V62.16V62.16ZM16.0492 4.34269C19.0882 2.96454 21.4886 1.87606 26.9425 1.87606C30.4032 1.87606 33.4957 3.32437 34.136 5.24508C34.2999 5.7366 34.8307 6.00188 35.3225 5.83828C35.8139 5.67444 36.0795 5.14314 35.9157 4.65174C35.8618 4.4899 35.7974 4.33119 35.7245 4.17535C37.6898 4.87649 39.1007 6.75555 39.1007 8.95866V19.0491H38.0336C37.4452 19.0491 36.9665 18.5704 36.9665 17.982V16.9793C36.9665 12.6305 33.818 9.43206 33.6839 9.29798C33.4367 9.05059 33.0721 8.96192 32.7382 9.06672C27.531 10.7111 20.189 12.0971 14.7837 9.36214C12.8602 8.38884 11.7245 7.15202 11.1271 6.32618C13.1184 5.67182 14.6619 4.9718 16.0492 4.34269ZM31.0801 38.9021L29.2886 45.0446C27.9759 45.748 26.501 46.1188 25.0002 46.1188C23.5002 46.1188 22.024 45.7485 20.7119 45.0456L18.92 38.9021V36.5749C20.7592 37.4676 22.8221 37.9691 25.0001 37.9691C27.1778 37.9691 29.2407 37.4673 31.0801 36.5741V38.9021V38.9021ZM25.0001 36.0929C18.3306 36.0929 12.9046 30.6669 12.9046 23.9974C12.9046 23.4792 12.4846 23.0593 11.9666 23.0593C11.4486 23.0593 11.0286 23.4792 11.0286 23.9974V24.0619H10.4628C10.0204 24.0619 9.59627 23.8736 9.29923 23.5452C8.99831 23.2127 8.85748 22.7806 8.90276 22.3284C8.98168 21.5415 9.72985 20.925 10.6061 20.925H11.9666C13.5895 20.925 14.9098 19.6047 14.9098 17.9819V14.4414C14.9098 13.9232 14.4898 13.5033 13.9717 13.5033C13.4537 13.5033 13.0337 13.9232 13.0337 14.4414V17.9819C13.0337 18.5703 12.5549 19.049 11.9666 19.049H10.8995V13.3031C10.8995 11.1205 11.4861 10.0351 11.757 9.6503C12.3301 10.1023 13.0022 10.5501 13.7889 10.96C15.9147 12.068 18.4449 12.6816 21.309 12.7837C24.666 12.9044 28.5029 12.3156 32.7204 11.0361C33.4648 11.9376 35.0906 14.2223 35.0906 16.9792V17.9819C35.0906 19.6048 36.411 20.925 38.0338 20.925H39.5376C39.98 20.925 40.4041 21.1134 40.7011 21.4417C41.0021 21.7742 41.1429 22.2062 41.0976 22.6584C41.0188 23.4454 40.2708 24.0619 39.3945 24.0619H38.9713V24.0071C38.9713 23.4892 38.5516 23.0694 38.0336 23.0691C38.0335 23.0691 38.0334 23.0691 38.0333 23.0691C37.5155 23.0691 37.0956 23.4886 37.0952 24.0064C37.0901 30.6709 31.6643 36.0929 25.0001 36.0929Z" fill="#F54991"/>
</svg>
