<svg width="45" height="52" viewBox="0 0 45 52" fill="none" xmlns="http://www.w3.org/2000/svg">
<path d="M22.5 0L0 4.95034V27.6136C0 34.1024 3.70416 40.2645 9.91788 44.0976L22.5 51.8325L35.0821 44.0976C41.2958 40.2645 45 34.1024 45 27.6136V4.95034L22.5 0ZM41.5623 27.6136C41.5623 32.8992 38.4683 37.9269 33.2687 41.1755L22.5 47.8275L11.7313 41.1755C6.57467 37.9698 3.43774 32.8992 3.43774 27.6136V7.73491L22.5 3.48071L41.5623 7.73491V27.6136Z" fill="#F54991"/>
<path d="M12.3756 22.7228L9.94336 25.155L18.426 33.6376L35.056 17.0162L32.6238 14.584L18.426 28.7818L12.3756 22.7228Z" fill="#F54991"/>
</svg>
